<?xml version="1.0" standalone="no"?>
<!DOCTYPE svg PUBLIC "-//W3C//DTD SVG 20010904//EN"
 "http://www.w3.org/TR/2001/REC-SVG-20010904/DTD/svg10.dtd">
<svg version="1.0" xmlns="http://www.w3.org/2000/svg"
 width="78.000000pt" height="78.000000pt" viewBox="0 0 78.000000 78.000000"
 preserveAspectRatio="xMidYMid meet">
<metadata>
Created by potrace 1.11, written by Peter Selinger 2001-2013
</metadata>
<g transform="translate(0.000000,78.000000) scale(0.100000,-0.100000)"
fill="#000000" stroke="none">
<path d="M285 765 c-111 -33 -194 -106 -248 -214 -29 -60 -32 -74 -32 -161 0
-85 3 -102 31 -160 40 -85 104 -149 189 -191 64 -31 77 -34 165 -34 86 0 101
3 160 31 83 40 155 111 194 194 25 54 31 79 32 147 2 83 -9 130 -46 202 -20
39 -104 131 -120 131 -6 0 -10 -56 -11 -132 -1 -169 -6 -212 -31 -271 -33 -76
-97 -117 -186 -117 -68 0 -141 50 -178 123 -25 48 -25 66 -1 72 119 24 115 24
126 -6 18 -53 87 -63 113 -16 8 14 13 89 16 218 l4 197 -68 0 c-38 0 -87 -6
-109 -13z"/>
</g>
</svg>
